<?xml version="1.0" standalone="no"?>
<!DOCTYPE svg PUBLIC "-//W3C//DTD SVG 20010904//EN"
 "http://www.w3.org/TR/2001/REC-SVG-20010904/DTD/svg10.dtd">
<svg version="1.0" xmlns="http://www.w3.org/2000/svg"
 width="424.000000pt" height="251.000000pt" viewBox="0 0 424.000000 251.000000"
 preserveAspectRatio="xMidYMid meet">

<g transform="translate(0.000000,251.000000) scale(0.100000,-0.100000)"
fill="white" stroke="none">
<path d="M497 2453 c-4 -3 -7 -17 -7 -30 0 -19 9 -28 40 -40 22 -9 40 -21 40
-28 0 -16 221 -95 239 -85 8 4 32 2 53 -6 35 -12 39 -11 52 8 19 26 14 34 -31
53 -20 8 -41 22 -47 30 -16 21 -218 94 -235 85 -8 -4 -32 -2 -54 6 -46 16 -42
16 -50 7z"/>
<path d="M476 2164 c-22 -8 -44 -10 -48 -6 -14 14 -237 -59 -243 -79 -3 -9
-23 -21 -45 -28 -28 -8 -40 -17 -40 -30 0 -31 25 -45 61 -32 17 6 42 8 55 5
29 -8 214 52 234 76 9 9 33 23 53 29 28 10 37 18 37 36 0 36 -19 44 -64 29z"/>
<path d="M1775 2142 c-152 -53 -258 -194 -272 -363 -14 -169 82 -336 235 -407
50 -24 69 -27 162 -27 117 0 165 15 242 77 l40 32 -33 28 c-19 16 -48 40 -65
53 l-31 25 -49 -27 c-192 -108 -407 116 -310 322 45 97 121 140 233 132 l72
-5 36 63 c19 35 35 67 35 73 0 17 -102 42 -174 42 -41 -1 -92 -8 -121 -18z"/>
<path d="M2390 1823 l0 -338 83 -72 82 -72 3 140 3 140 66 -3 66 -3 47 -120
c26 -66 50 -128 53 -139 6 -15 17 -6 67 55 33 40 60 76 60 79 0 4 -15 46 -34
94 l-35 88 34 43 c49 65 59 104 51 209 -7 106 -30 150 -98 190 -60 34 -138 46
-305 46 l-143 0 0 -337z m330 149 c19 -9 41 -30 49 -47 13 -26 12 -33 -5 -64
-26 -47 -75 -71 -146 -71 l-58 0 0 100 0 100 63 0 c39 0 75 -6 97 -18z"/>
<path d="M3152 1824 l3 -336 83 -76 82 -75 0 412 0 411 -85 0 -85 0 2 -336z"/>
<path d="M3789 2137 c-70 -30 -104 -53 -158 -112 -181 -196 -115 -533 126
-652 53 -26 67 -28 168 -28 101 0 114 2 167 29 31 16 69 41 83 56 l26 27 -60
52 -60 52 -47 -27 c-36 -21 -58 -27 -103 -27 -97 2 -160 40 -206 125 -91 167
33 370 217 356 29 -2 59 -6 66 -9 7 -2 29 25 53 69 l41 72 -39 17 c-24 11 -72
18 -128 20 -77 3 -98 0 -146 -20z"/>
<path d="M835 1895 l-25 -24 0 -921 0 -920 95 0 95 0 0 920 0 921 -25 24 c-18
19 -35 25 -70 25 -35 0 -52 -6 -70 -25z"/>
<path d="M471 1863 l-24 -16 7 -766 c3 -421 9 -830 12 -908 l7 -143 87 0 87 0
-4 368 c-18 1538 -16 1452 -37 1468 -27 19 -106 18 -135 -3z"/>
<path d="M49 1839 c-18 -18 -20 -29 -15 -82 4 -34 18 -269 32 -522 14 -253 36
-626 48 -830 l21 -370 88 -3 87 -3 0 48 c0 42 -62 1131 -90 1587 -12 189 -15
196 -97 196 -40 0 -58 -5 -74 -21z"/>
<path d="M1500 812 l0 -338 63 -76 62 -77 203 0 202 -1 0 85 0 85 -180 0 -180
0 0 330 0 330 -85 0 -85 0 0 -338z"/>
<path d="M2240 813 l0 -338 67 -60 c37 -33 75 -66 85 -73 17 -13 18 2 18 397
l0 411 -85 0 -85 0 0 -337z"/>
<path d="M2620 1135 c0 -3 0 -152 -1 -332 l0 -328 80 -74 81 -74 0 167 0 166
160 0 160 0 0 85 0 85 -160 0 -160 0 0 70 0 70 103 0 103 0 55 67 c30 37 60
75 67 85 13 17 1 18 -237 18 -138 0 -251 -2 -251 -5z"/>
<path d="M3330 808 l1 -333 65 -77 65 -78 189 0 190 0 0 85 0 85 -170 0 -170
0 0 85 0 85 160 0 160 0 0 85 0 85 -160 0 -160 0 0 70 0 70 103 1 102 0 68 85
68 84 -255 0 -256 0 0 -332z"/>
</g>
</svg>
